# xmcd
#
# Track frame offsets:
#	150
#	10565
#	22521
#	34338
#	44494
#	56717
#	67517
#	76564
#	85695
#	97189
#	106238
#	115066
#	126538
#	137003
#	147847
#	159521
#	172541
#	182258
#	188200
#	198054
#	207036
#	218491
#	227383
#	238354
#	247538
#	260548
#	271010
#	281726
#	290853
#	300927
#
# Disc length: 4135 seconds
#
# Revision: 1
# Processed by: cddbd v1.5.1PL0 Copyright (c) Steve Scherf et al.
# Submitted via: audiograbber 1.83.01
#
DISCID=7c10251e
DTITLE=Waylon Jennings - The Journey, Destiny's Child Vol.3 (Of 6)
DYEAR=2002
DGENRE=Country
TTITLE0=I Wonder Just Where I Went Wrong
TTITLE1=Another Bridge To Burn (1966)
TTITLE2=Now Everybody Knows (1966)
TTITLE3=Down Came The World (1966)
TTITLE4=I'm A Man Of Constant Sorrow 
TTITLE5=Dream Baby (How Long Must I Dream)
TTITLE6=Time Will Tell The Story (1966)
TTITLE7=Stop The World (And Let Me Off)
TTITLE8=The Dark Side Of Fame (1965)
TTITLE9=That's The Chance I'll Have To Take
TTITLE10=Cindy Of New Orleans (1966)
TTITLE11=What's Left Of Me (1966)
TTITLE12=Look Into My Teardrops (1965)
TTITLE13=Anita, You're Dreaming (1965)
TTITLE14=What Makes A Man Wander (1966)
TTITLE15=I Don't Mind (1966)
TTITLE16=Just For You (1966)
TTITLE17=Baby, Don't Be Looking In My Mind
TTITLE18=My World (1967)
TTITLE19=Time To Bum Again (1966)
TTITLE20=Falling For You (1966)
TTITLE21=If You Really Want Me To I'll Go
TTITLE22=(That's What You Get) For Loving
TTITLE23=But That's Alright (1966)
TTITLE24=Doesn't Anybody Know My Name
TTITLE25=Taos, New Mexico (1967)
TTITLE26=Your're Gonna Wonder About Me
TTITLE27=Norwegian Wood (1966)
TTITLE28=I Tremble For You (1967)
TTITLE29=Leavin' Town (1966)
EXTD=
EXTT0=
EXTT1=
EXTT2=
EXTT3=
EXTT4=
EXTT5=
EXTT6=
EXTT7=
EXTT8=
EXTT9=
EXTT10=
EXTT11=
EXTT12=
EXTT13=
EXTT14=
EXTT15=
EXTT16=
EXTT17=
EXTT18=
EXTT19=
EXTT20=
EXTT21=
EXTT22=
EXTT23=
EXTT24=
EXTT25=
EXTT26=
EXTT27=
EXTT28=
EXTT29=
PLAYORDER=
